<svg id="Laag_1" data-name="Laag 1" xmlns="http://www.w3.org/2000/svg" viewBox="0 0 113.15 105.58"><defs><style>.cls-1,.cls-2{fill:none;stroke:#ccbf63;stroke-miterlimit:10;stroke-width:2.89px;}.cls-2{stroke-linecap:round;}.cls-3{fill:#ccbf63;}</style></defs><rect class="cls-1" x="1.44" y="1.44" width="110.26" height="81.97" rx="20.73"/><line class="cls-1" x1="1.44" y1="63.75" x2="111.7" y2="63.75"/><circle class="cls-1" cx="43.93" cy="73.94" r="3.34"/><circle class="cls-1" cx="56.22" cy="73.94" r="3.34"/><circle class="cls-1" cx="68.51" cy="73.94" r="3.34"/><rect class="cls-1" x="36.21" y="83.42" width="40.38" height="11.24"/><rect class="cls-1" x="24.43" y="94.65" width="63.75" height="9.48" rx="4.74"/><line class="cls-2" x1="66.76" y1="16.35" x2="54.82" y2="48.66"/><path class="cls-3" d="M493.32,356.66a1.31,1.31,0,0,1,1,.43,1.45,1.45,0,0,1,.39,1v14.09a9.56,9.56,0,0,1-1.26,4.9,9.55,9.55,0,0,1-16.51,0,9.56,9.56,0,0,1-1.26-4.9V358.12a1.37,1.37,0,0,1,.43-1,1.46,1.46,0,0,1,1.1-.43,1.39,1.39,0,0,1,1,.43,1.34,1.34,0,0,1,.44,1v14.09a6.83,6.83,0,0,0,.89,3.48,6.53,6.53,0,0,0,5.65,3.27,6.65,6.65,0,0,0,6.74-6.75V358.12a1.53,1.53,0,0,1,.37-1A1.23,1.23,0,0,1,493.32,356.66Z" transform="translate(-466.16 -335.35)"/><path class="cls-3" d="M500.14,381.69a1.36,1.36,0,0,1-1.32-1.24,1.55,1.55,0,0,1,.36-1L507,368.8l1.53,2.35-7.28,9.9A1.29,1.29,0,0,1,500.14,381.69Zm.14-25.1a1.35,1.35,0,0,1,1.17.6l16.47,22.19a1.6,1.6,0,0,1,.29.89,1.3,1.3,0,0,1-.46,1,1.48,1.48,0,0,1-1,.39,1.35,1.35,0,0,1-1.17-.6L499.14,358.9a1.42,1.42,0,0,1-.28-.85,1.37,1.37,0,0,1,.44-1.05A1.43,1.43,0,0,1,500.28,356.59Zm16.61,0a1.31,1.31,0,0,1,.94.39,1.16,1.16,0,0,1,.41.88,1.41,1.41,0,0,1-.32.89l-7.81,10.55-1.59-2.28,7.2-9.79A1.44,1.44,0,0,1,516.89,356.63Z" transform="translate(-466.16 -335.35)"/><path class="cls-3" d="M555.37,356.66a1.31,1.31,0,0,1,1,.43,1.45,1.45,0,0,1,.39,1v14.09a9.56,9.56,0,0,1-1.26,4.9,9.55,9.55,0,0,1-16.51,0,9.56,9.56,0,0,1-1.26-4.9V358.12a1.37,1.37,0,0,1,.43-1,1.46,1.46,0,0,1,1.1-.43,1.4,1.4,0,0,1,1,.43,1.34,1.34,0,0,1,.44,1v14.09a6.83,6.83,0,0,0,.89,3.48,6.53,6.53,0,0,0,5.65,3.27,6.65,6.65,0,0,0,6.74-6.75V358.12a1.53,1.53,0,0,1,.37-1A1.23,1.23,0,0,1,555.37,356.66Z" transform="translate(-466.16 -335.35)"/><path class="cls-3" d="M566,380.09a1.38,1.38,0,0,1-.44,1,1.46,1.46,0,0,1-1,.43,1.4,1.4,0,0,1-1.08-.43,1.39,1.39,0,0,1-.41-1V358.15a1.43,1.43,0,0,1,.42-1,1.51,1.51,0,0,1,1.1-.42,1.45,1.45,0,0,1,1.46,1.45Z" transform="translate(-466.16 -335.35)"/></svg>