<svg id="Laag_1" data-name="Laag 1" xmlns="http://www.w3.org/2000/svg" viewBox="0 0 126.42 98.89"><defs><style>.cls-1{fill:none;}.cls-1,.cls-2{stroke:#ccbf63;stroke-miterlimit:10;stroke-width:3.86px;}.cls-2,.cls-3{fill:#ccbf63;}</style></defs><rect class="cls-1" x="1.93" y="1.93" width="122.56" height="95.03" rx="6.53"/><line class="cls-1" x1="1.93" y1="23.57" x2="124.49" y2="23.57"/><circle class="cls-2" cx="36.73" cy="13.48" r="2.02"/><circle class="cls-2" cx="26.11" cy="13.48" r="2.02"/><circle class="cls-2" cx="26.11" cy="13.48" r="2.02"/><circle class="cls-2" cx="15.48" cy="13.48" r="2.02"/><circle class="cls-2" cx="15.48" cy="13.48" r="2.02"/><path class="cls-3" d="M622.3,366.57a2.1,2.1,0,0,1,1.36.54,1.82,1.82,0,0,1,.65,1.47,2.56,2.56,0,0,1-.1.62l-6.08,17.89a1.52,1.52,0,0,1-.66.85,2.18,2.18,0,0,1-1,.32,1.9,1.9,0,0,1-1-.31,2,2,0,0,1-.79-.89l-4.57-10.37.28.19-4.51,10.18a2,2,0,0,1-1.82,1.2,2.26,2.26,0,0,1-1-.32,1.51,1.51,0,0,1-.68-.85l-6.08-17.89a2.5,2.5,0,0,1-.09-.62,1.8,1.8,0,0,1,.66-1.47,2.15,2.15,0,0,1,1.37-.54,2.12,2.12,0,0,1,1.1.31,1.53,1.53,0,0,1,.69.9l4.91,14.87-.68,0,4.38-10.53a2,2,0,0,1,.71-.87,2,2,0,0,1,2.1,0,1.85,1.85,0,0,1,.68.87l4,10.06-.49.31,4.84-14.68a1.52,1.52,0,0,1,.71-.9A2.21,2.21,0,0,1,622.3,366.57Z" transform="translate(-582.24 -322.2)"/><path class="cls-3" d="M660,366.57a2.08,2.08,0,0,1,1.36.54,1.82,1.82,0,0,1,.65,1.47,2.15,2.15,0,0,1-.1.62l-6.07,17.89a1.58,1.58,0,0,1-.67.85,2.18,2.18,0,0,1-1,.32,1.93,1.93,0,0,1-1-.31,2,2,0,0,1-.79-.89l-4.57-10.37.28.19-4.5,10.18a2,2,0,0,1-.79.89,1.93,1.93,0,0,1-1,.31,2.26,2.26,0,0,1-1-.32,1.55,1.55,0,0,1-.68-.85L634,369.2a2.5,2.5,0,0,1-.09-.62,1.8,1.8,0,0,1,.66-1.47,2.17,2.17,0,0,1,1.38-.54,2.12,2.12,0,0,1,1.09.31,1.59,1.59,0,0,1,.7.9l4.9,14.87-.68,0,4.38-10.53a2.12,2.12,0,0,1,.71-.87,2,2,0,0,1,2.1,0,1.79,1.79,0,0,1,.68.87l4,10.06-.49.31,4.84-14.68a1.56,1.56,0,0,1,.71-.9A2.21,2.21,0,0,1,660,366.57Z" transform="translate(-582.24 -322.2)"/><path class="cls-3" d="M697.77,366.57a2.08,2.08,0,0,1,1.35.54,1.79,1.79,0,0,1,.65,1.47,2.5,2.5,0,0,1-.09.62l-6.08,17.89a1.52,1.52,0,0,1-.66.85,2.22,2.22,0,0,1-1,.32,1.93,1.93,0,0,1-1-.31,2,2,0,0,1-.79-.89l-4.56-10.37.28.19-4.51,10.18a2,2,0,0,1-.79.89,1.93,1.93,0,0,1-1,.31,2.26,2.26,0,0,1-1-.32,1.55,1.55,0,0,1-.68-.85l-6.07-17.89a2.15,2.15,0,0,1-.1-.62,1.81,1.81,0,0,1,.67-1.47,2,2,0,0,1,2.47-.23,1.53,1.53,0,0,1,.69.9l4.91,14.87-.68,0,4.38-10.53a2,2,0,0,1,.71-.87,2,2,0,0,1,2.1,0,1.83,1.83,0,0,1,.67.87l4,10.06-.5.31L696,367.78a1.55,1.55,0,0,1,.7-.9A2.22,2.22,0,0,1,697.77,366.57Z" transform="translate(-582.24 -322.2)"/></svg>